%TF.GenerationSoftware,KiCad,Pcbnew,9.0.1*%
%TF.CreationDate,2025-06-11T13:29:21-05:00*%
%TF.ProjectId,Digital_PCB,44696769-7461-46c5-9f50-43422e6b6963,2.0*%
%TF.SameCoordinates,Original*%
%TF.FileFunction,Copper,L4,Bot*%
%TF.FilePolarity,Positive*%
%FSLAX46Y46*%
G04 Gerber Fmt 4.6, Leading zero omitted, Abs format (unit mm)*
G04 Created by KiCad (PCBNEW 9.0.1) date 2025-06-11 13:29:21*
%MOMM*%
%LPD*%
G01*
G04 APERTURE LIST*
G04 Aperture macros list*
%AMRoundRect*
0 Rectangle with rounded corners*
0 $1 Rounding radius*
0 $2 $3 $4 $5 $6 $7 $8 $9 X,Y pos of 4 corners*
0 Add a 4 corners polygon primitive as box body*
4,1,4,$2,$3,$4,$5,$6,$7,$8,$9,$2,$3,0*
0 Add four circle primitives for the rounded corners*
1,1,$1+$1,$2,$3*
1,1,$1+$1,$4,$5*
1,1,$1+$1,$6,$7*
1,1,$1+$1,$8,$9*
0 Add four rect primitives between the rounded corners*
20,1,$1+$1,$2,$3,$4,$5,0*
20,1,$1+$1,$4,$5,$6,$7,0*
20,1,$1+$1,$6,$7,$8,$9,0*
20,1,$1+$1,$8,$9,$2,$3,0*%
G04 Aperture macros list end*
%TA.AperFunction,WasherPad*%
%ADD10C,3.937000*%
%TD*%
%TA.AperFunction,ComponentPad*%
%ADD11C,1.500000*%
%TD*%
%TA.AperFunction,ComponentPad*%
%ADD12R,1.700000X1.700000*%
%TD*%
%TA.AperFunction,ComponentPad*%
%ADD13O,1.700000X1.700000*%
%TD*%
%TA.AperFunction,ComponentPad*%
%ADD14C,1.700000*%
%TD*%
%TA.AperFunction,ComponentPad*%
%ADD15RoundRect,0.249900X-0.800100X0.800100X-0.800100X-0.800100X0.800100X-0.800100X0.800100X0.800100X0*%
%TD*%
%TA.AperFunction,ComponentPad*%
%ADD16C,2.100000*%
%TD*%
%TA.AperFunction,ComponentPad*%
%ADD17C,3.000000*%
%TD*%
%TA.AperFunction,ComponentPad*%
%ADD18C,2.032000*%
%TD*%
%TA.AperFunction,ComponentPad*%
%ADD19C,1.524000*%
%TD*%
%TA.AperFunction,ComponentPad*%
%ADD20R,1.468000X1.468000*%
%TD*%
%TA.AperFunction,ComponentPad*%
%ADD21C,1.468000*%
%TD*%
%TA.AperFunction,ComponentPad*%
%ADD22C,1.509000*%
%TD*%
%TA.AperFunction,ComponentPad*%
%ADD23R,1.350000X1.350000*%
%TD*%
%TA.AperFunction,ComponentPad*%
%ADD24O,1.350000X1.350000*%
%TD*%
%TA.AperFunction,ViaPad*%
%ADD25C,0.508000*%
%TD*%
%TA.AperFunction,Conductor*%
%ADD26C,0.304800*%
%TD*%
%TA.AperFunction,Conductor*%
%ADD27C,0.635000*%
%TD*%
G04 APERTURE END LIST*
D10*
%TO.P,H1,*%
%TO.N,*%
X145380000Y-134108000D03*
%TD*%
D11*
%TO.P,F1,1*%
%TO.N,Net-(J9-Pin_2)*%
X124318000Y-94655000D03*
%TO.P,F1,2*%
%TO.N,Net-(Q1-D)*%
X124318000Y-99655000D03*
%TD*%
D12*
%TO.P,J8,1,Pin_1*%
%TO.N,GND*%
X180721000Y-100711000D03*
D13*
%TO.P,J8,2,Pin_2*%
%TO.N,SWCLK*%
X180721000Y-98171000D03*
%TO.P,J8,3,Pin_3*%
%TO.N,SWDIO*%
X180721000Y-95631000D03*
%TO.P,J8,4,Pin_4*%
%TO.N,+3V3*%
X180721000Y-93091000D03*
%TD*%
D12*
%TO.P,J2,1,Pin_1*%
%TO.N,GND*%
X110420000Y-60198000D03*
D14*
%TO.P,J2,2,Pin_2*%
%TO.N,+5V*%
X110420000Y-62738000D03*
%TO.P,J2,3,Pin_3*%
%TO.N,-5V*%
X110420000Y-65278000D03*
%TO.P,J2,4,Pin_4*%
%TO.N,AMP_IN*%
X110420000Y-67818000D03*
%TO.P,J2,5,Pin_5*%
%TO.N,AMP_OUT*%
X110420000Y-70358000D03*
%TO.P,J2,6,Pin_6*%
%TO.N,GND*%
X110420000Y-72898000D03*
%TO.P,J2,7,Pin_7*%
%TO.N,unconnected-(J2-Pin_7-Pad7)*%
X110420000Y-75438000D03*
%TO.P,J2,8,Pin_8*%
%TO.N,unconnected-(J2-Pin_8-Pad8)*%
X110420000Y-77978000D03*
%TO.P,J2,9,Pin_9*%
%TO.N,unconnected-(J2-Pin_9-Pad9)*%
X110420000Y-80518000D03*
%TO.P,J2,10,Pin_10*%
%TO.N,unconnected-(J2-Pin_10-Pad10)*%
X110420000Y-83058000D03*
%TD*%
D15*
%TO.P,J9,1,Pin_1*%
%TO.N,GND*%
X119910000Y-99300000D03*
D16*
%TO.P,J9,2,Pin_2*%
%TO.N,Net-(J9-Pin_2)*%
X119910000Y-95264000D03*
%TD*%
D15*
%TO.P,J10,1,Pin_1*%
%TO.N,Net-(D1-K)*%
X119910000Y-107174000D03*
D16*
%TO.P,J10,2,Pin_2*%
%TO.N,Net-(J10-Pin_2)*%
X119910000Y-103138000D03*
%TD*%
D17*
%TO.P,AE1,1,A*%
%TO.N,Net-(AE1-A)*%
X136118600Y-136271000D03*
%TO.P,AE1,2,Shield*%
%TO.N,GND*%
X133578600Y-133731000D03*
%TO.P,AE1,3*%
%TO.N,N/C*%
X138658600Y-133731000D03*
%TO.P,AE1,4*%
X138658600Y-138811000D03*
%TO.P,AE1,5*%
X133578600Y-138811000D03*
%TD*%
D10*
%TO.P,H2,*%
%TO.N,*%
X145380000Y-65958000D03*
%TD*%
D18*
%TO.P,J5,*%
%TO.N,*%
X113919000Y-110500546D03*
X113919000Y-117910546D03*
D19*
%TO.P,J5,1,Pin_1*%
%TO.N,GND*%
X112445800Y-116113946D03*
%TO.P,J5,2,Pin_2*%
%TO.N,Status_LED_R*%
X109905800Y-114843946D03*
%TO.P,J5,3,Pin_3*%
%TO.N,Status_LED_G*%
X112445800Y-113573946D03*
%TO.P,J5,4,Pin_4*%
%TO.N,Status_LED_B*%
X109905800Y-112303946D03*
%TD*%
D12*
%TO.P,J7,1,Pin_1*%
%TO.N,GND*%
X180721000Y-89286000D03*
D13*
%TO.P,J7,2,Pin_2*%
%TO.N,RESET*%
X180721000Y-86746000D03*
%TD*%
D20*
%TO.P,PS1,1,+VIN*%
%TO.N,Net-(PS1-+VIN)*%
X133857000Y-68707000D03*
D21*
%TO.P,PS1,2,GND*%
%TO.N,GND*%
X133857000Y-66167000D03*
%TO.P,PS1,3,+VOUT*%
%TO.N,+3V3*%
X133857000Y-63627000D03*
%TD*%
D22*
%TO.P,U2,1,GNDin*%
%TO.N,GND*%
X121864400Y-79965800D03*
%TO.P,U2,2,Vin*%
%TO.N,+BATT*%
X121864400Y-77425800D03*
%TO.P,U2,3,ON/~{OFF}*%
%TO.N,unconnected-(U2-ON{slash}~{OFF}-Pad3)*%
X121864400Y-74885800D03*
%TO.P,U2,5,NC*%
%TO.N,unconnected-(U2-NC-Pad5)*%
X121864400Y-69805800D03*
%TO.P,U2,6,+Out*%
%TO.N,+5V*%
X121864400Y-67265800D03*
%TO.P,U2,7,VoutCom*%
%TO.N,GND*%
X121864400Y-64725800D03*
%TO.P,U2,8,-Out*%
%TO.N,-5V*%
X121864400Y-62185800D03*
%TD*%
D15*
%TO.P,J1,1,Pin_1*%
%TO.N,AMP_IN*%
X119910000Y-91426000D03*
D16*
%TO.P,J1,2,Pin_2*%
%TO.N,GND*%
X119910000Y-87390000D03*
%TD*%
D23*
%TO.P,U10,1,VCC*%
%TO.N,+3V3*%
X155305000Y-116330000D03*
D24*
%TO.P,U10,2,DOUT/DIO13*%
%TO.N,XBee_RX*%
X155305000Y-118330000D03*
%TO.P,U10,3,DIN/DIO13*%
%TO.N,XBee_TX*%
X155305000Y-120330000D03*
%TO.P,U10,4,DIO12/MISO*%
%TO.N,unconnected-(U10-DIO12{slash}MISO-Pad4)*%
X155305000Y-122330000D03*
%TO.P,U10,5,nRESET*%
%TO.N,unconnected-(U10-nRESET-Pad5)*%
X155305000Y-124330000D03*
%TO.P,U10,6,~{DIO10/PWM0}*%
%TO.N,Net-(U10-~{DIO10{slash}PWM0})*%
X155305000Y-126330000D03*
%TO.P,U10,7,DIO11/PWM1*%
%TO.N,unconnected-(U10-DIO11{slash}PWM1-Pad7)*%
X155305000Y-128330000D03*
%TO.P,U10,8,RSVD*%
%TO.N,unconnected-(U10-RSVD-Pad8)*%
X155305000Y-130330000D03*
%TO.P,U10,9,nDTR/DIO8*%
%TO.N,unconnected-(U10-nDTR{slash}DIO8-Pad9)*%
X155305000Y-132330000D03*
%TO.P,U10,10,GND*%
%TO.N,GND*%
X155305000Y-134330000D03*
%TO.P,U10,11,DIO3/MOSI*%
%TO.N,unconnected-(U10-DIO3{slash}MOSI-Pad11)*%
X177305000Y-134330000D03*
%TO.P,U10,12,nCTS/DIO7*%
%TO.N,unconnected-(U10-nCTS{slash}DIO7-Pad12)*%
X177305000Y-132330000D03*
%TO.P,U10,13,nSLEEP/DIO9*%
%TO.N,unconnected-(U10-nSLEEP{slash}DIO9-Pad13)*%
X177305000Y-130330000D03*
%TO.P,U10,14,VREF*%
%TO.N,unconnected-(U10-VREF-Pad14)*%
X177305000Y-128330000D03*
%TO.P,U10,15,Assoc/DIO5*%
%TO.N,Net-(U10-Assoc{slash}DIO5)*%
X177305000Y-126330000D03*
%TO.P,U10,16,nRTS/DIO6*%
%TO.N,unconnected-(U10-nRTS{slash}DIO6-Pad16)*%
X177305000Y-124330000D03*
%TO.P,U10,17,AD3/DIO3/nSSEL*%
%TO.N,Net-(U10-AD3{slash}DIO3{slash}nSSEL)*%
X177305000Y-122330000D03*
%TO.P,U10,18,AD2/DIO2/CLK*%
%TO.N,unconnected-(U10-AD2{slash}DIO2{slash}CLK-Pad18)*%
X177305000Y-120330000D03*
%TO.P,U10,19,AD1/DIO1/ATTN*%
%TO.N,unconnected-(U10-AD1{slash}DIO1{slash}ATTN-Pad19)*%
X177305000Y-118330000D03*
%TO.P,U10,20,AD0/DIO0*%
%TO.N,unconnected-(U10-AD0{slash}DIO0-Pad20)*%
X177305000Y-116330000D03*
%TD*%
D12*
%TO.P,J6,1,Pin_1*%
%TO.N,Net-(J6-Pin_1)*%
X180721000Y-112141000D03*
D13*
%TO.P,J6,2,Pin_2*%
%TO.N,Net-(J6-Pin_2)*%
X180721000Y-109601000D03*
%TO.P,J6,3,Pin_3*%
%TO.N,Net-(J6-Pin_3)*%
X180721000Y-107061000D03*
%TO.P,J6,4,Pin_4*%
%TO.N,Net-(J6-Pin_4)*%
X180721000Y-104521000D03*
%TD*%
D18*
%TO.P,J3,*%
%TO.N,*%
X113919000Y-120914546D03*
X113919000Y-128324546D03*
D19*
%TO.P,J3,1,Pin_1*%
%TO.N,GND*%
X112445800Y-126527946D03*
%TO.P,J3,2,Pin_2*%
%TO.N,Radio_RX*%
X109905800Y-125257946D03*
%TO.P,J3,3,Pin_3*%
%TO.N,Radio_TX*%
X112445800Y-123987946D03*
%TO.P,J3,4,Pin_4*%
%TO.N,+BATT*%
X109905800Y-122717946D03*
%TD*%
D25*
%TO.N,+3V3*%
X119380000Y-140716000D03*
X158623000Y-93980000D03*
X157480000Y-107061000D03*
X158496000Y-88138000D03*
X165989000Y-83058000D03*
X155265001Y-112026700D03*
X158313001Y-99987100D03*
X136144000Y-110363000D03*
X137404119Y-87753214D03*
X141986000Y-128524000D03*
X145003401Y-104101900D03*
X164084000Y-97282000D03*
X173990000Y-85852000D03*
X143637000Y-85344000D03*
X114681000Y-133858000D03*
X176530000Y-90170000D03*
X150185001Y-98209100D03*
X160274000Y-97282000D03*
X167132000Y-85852000D03*
X142146000Y-85471000D03*
X137320000Y-85922000D03*
X171323000Y-93345000D03*
X145161000Y-85344000D03*
X165989000Y-69977000D03*
%TO.N,RESET*%
X160872624Y-96483624D03*
X154687000Y-101346000D03*
%TO.N,Net-(D1-K)*%
X126746000Y-108712000D03*
%TO.N,Status_LED_G*%
X116216700Y-110921797D03*
X139837764Y-107069045D03*
X126238000Y-110896394D03*
X150749000Y-100838000D03*
%TO.N,Status_LED_B*%
X140208000Y-108379800D03*
X126238000Y-112217200D03*
X150749000Y-104140000D03*
%TO.N,Status_LED_R*%
X126238000Y-111556797D03*
X139923585Y-107773488D03*
X150749000Y-101498403D03*
X116216700Y-111582200D03*
%TO.N,Xacc*%
X141780800Y-70511581D03*
X128854194Y-134620000D03*
%TO.N,Yacc*%
X129514597Y-134620000D03*
X141780800Y-71171984D03*
%TO.N,Zacc*%
X141780800Y-71832387D03*
X130175000Y-134620000D03*
%TO.N,Xacc_Buffered*%
X156972000Y-75946000D03*
X156972000Y-77470000D03*
%TO.N,+5V*%
X144780000Y-74360000D03*
X143637000Y-76073000D03*
X153416000Y-74360000D03*
%TO.N,-5V*%
X160528000Y-79310000D03*
X151892000Y-79310000D03*
%TO.N,Radio_RX*%
X127381000Y-115925600D03*
%TO.N,Radio_TX*%
X127762000Y-115366800D03*
%TO.N,I2C_SDA*%
X145167683Y-106730800D03*
X150536655Y-102770405D03*
%TO.N,I2C_SCL*%
X151278400Y-102896403D03*
X145957946Y-106730799D03*
X141217870Y-109497400D03*
X141217870Y-108379800D03*
%TO.N,SWDIO*%
X178689000Y-98621600D03*
%TO.N,SPI_MOSI*%
X153111209Y-106045000D03*
X152690800Y-96030052D03*
%TO.N,SPI_SCK*%
X151790403Y-106045000D03*
X151370388Y-96014602D03*
X151765000Y-91313000D03*
X153303132Y-91236800D03*
%TO.N,SPI_MISO*%
X152450806Y-106045000D03*
X152030760Y-96008181D03*
%TO.N,XBee_TX*%
X162229800Y-103717975D03*
%TO.N,XBee_RX*%
X161671000Y-103251000D03*
%TO.N,SPI_ADC_DRDY*%
X150710002Y-96009925D03*
X151130000Y-106045000D03*
%TO.N,SPI_Acc_ADC_CS*%
X147827708Y-105313800D03*
X150049606Y-96012847D03*
%TO.N,Boot0*%
X161466384Y-94488000D03*
X159890584Y-94473868D03*
%TO.N,Boot1*%
X154178000Y-106045000D03*
X155397201Y-96521000D03*
%TO.N,ADC_RESET*%
X156005618Y-97712118D03*
X149733000Y-95123000D03*
%TO.N,Net-(U4-CLKIN)*%
X163576000Y-92964000D03*
X154305000Y-92202000D03*
%TO.N,GND*%
X160218001Y-98844100D03*
X159131000Y-107061000D03*
X166878000Y-74930000D03*
X147828000Y-107188000D03*
X146558000Y-103540987D03*
X114681000Y-132842000D03*
X167767000Y-97282000D03*
X151892000Y-83058000D03*
X126492000Y-139700000D03*
X142113000Y-89027000D03*
X124460000Y-91059000D03*
X137193000Y-89027000D03*
X164465000Y-79502000D03*
X154940000Y-83058000D03*
X180340000Y-133223000D03*
X123190000Y-141732000D03*
X129921000Y-137668000D03*
X166878000Y-91694000D03*
X181610000Y-83439000D03*
X148844000Y-83058000D03*
X137287000Y-124206000D03*
X122809000Y-132377000D03*
X158496000Y-89662000D03*
X160528000Y-75057000D03*
X125095000Y-109982000D03*
X157988000Y-83058000D03*
X158623000Y-93091000D03*
X134747000Y-104648000D03*
X126449000Y-132377000D03*
X119380000Y-136779000D03*
X148971000Y-80899000D03*
X152527000Y-132715000D03*
X132588000Y-89916000D03*
X151130000Y-98044000D03*
X151892000Y-74930000D03*
X162179000Y-74676000D03*
X141257000Y-85852000D03*
X135128000Y-124206000D03*
X144780000Y-78867000D03*
X141986000Y-127000000D03*
X173990000Y-87376000D03*
X153416000Y-78740000D03*
X135001000Y-73533000D03*
X127254000Y-92456000D03*
X146629001Y-98844100D03*
X169291000Y-69596000D03*
X159131000Y-101196200D03*
X151028400Y-120599200D03*
X144653000Y-111379000D03*
X167132000Y-87376000D03*
X150702470Y-86876919D03*
X130733800Y-84201000D03*
X167132000Y-83947000D03*
X153685600Y-87007664D03*
X143129000Y-101981000D03*
X181483000Y-72136000D03*
%TD*%
D26*
%TO.N,RESET*%
X159549376Y-96483624D02*
X160872624Y-96483624D01*
X154687000Y-101346000D02*
X159549376Y-96483624D01*
D27*
%TO.N,Net-(D1-K)*%
X125208000Y-107174000D02*
X119910000Y-107174000D01*
X126746000Y-108712000D02*
X125208000Y-107174000D01*
D26*
%TO.N,Status_LED_G*%
X126238000Y-110896394D02*
X126187203Y-110896394D01*
X150114000Y-101040203D02*
X150316203Y-100838000D01*
X126161800Y-110921797D02*
X116216700Y-110921797D01*
X143383000Y-106553000D02*
X143940800Y-105995200D01*
X143940800Y-103724832D02*
X146375316Y-101290315D01*
X150316203Y-100838000D02*
X150749000Y-100838000D01*
X146375316Y-101290315D02*
X146625429Y-101040203D01*
X139837764Y-107069045D02*
X140353809Y-106553000D01*
X146625429Y-101040203D02*
X150114000Y-101040203D01*
X126187203Y-110896394D02*
X126161800Y-110921797D01*
X140353809Y-106553000D02*
X143383000Y-106553000D01*
X143940800Y-105995200D02*
X143940800Y-103724832D01*
%TO.N,Status_LED_B*%
X140208000Y-108379800D02*
X141118400Y-107469400D01*
X116448577Y-112142000D02*
X115984823Y-112142000D01*
X110068746Y-112141000D02*
X109905800Y-112303946D01*
X115983823Y-112141000D02*
X110068746Y-112141000D01*
X146685000Y-105501650D02*
X147511249Y-104675400D01*
X126238000Y-112217200D02*
X126238000Y-112166403D01*
X146022599Y-107469401D02*
X146685000Y-106807000D01*
X141118400Y-107469400D02*
X146022599Y-107469401D01*
X116449577Y-112141000D02*
X116448577Y-112142000D01*
X150213600Y-104675400D02*
X150749000Y-104140000D01*
X147511249Y-104675400D02*
X150213600Y-104675400D01*
X115984823Y-112142000D02*
X115983823Y-112141000D01*
X126238000Y-112166403D02*
X126212597Y-112141000D01*
X126212597Y-112141000D02*
X116449577Y-112141000D01*
X146685000Y-106807000D02*
X146685000Y-105501650D01*
%TO.N,Status_LED_R*%
X144399000Y-106184993D02*
X144399000Y-103914624D01*
X126238000Y-111556797D02*
X126187203Y-111556797D01*
X146815221Y-101498403D02*
X150749000Y-101498403D01*
X139923585Y-107773488D02*
X140685873Y-107011200D01*
X143572792Y-107011200D02*
X144399000Y-106184993D01*
X126161800Y-111582200D02*
X116216700Y-111582200D01*
X144399000Y-103914624D02*
X146815221Y-101498403D01*
X140685873Y-107011200D02*
X143572792Y-107011200D01*
X126187203Y-111556797D02*
X126161800Y-111582200D01*
%TO.N,Xacc*%
X141451419Y-70511581D02*
X141251400Y-70711600D01*
X141251400Y-70711600D02*
X131954416Y-70711600D01*
X129258600Y-73407415D02*
X129258600Y-134049208D01*
X129258600Y-134049208D02*
X128854194Y-134453613D01*
X141780800Y-70511581D02*
X141451419Y-70511581D01*
X131954416Y-70711600D02*
X129258600Y-73407415D01*
X128854194Y-134453613D02*
X128854194Y-134620000D01*
%TO.N,Yacc*%
X129514597Y-134441203D02*
X129514597Y-134620000D01*
X141782984Y-71169800D02*
X132144207Y-71169800D01*
X129716800Y-134239000D02*
X129514597Y-134441203D01*
X141780800Y-71171984D02*
X141782984Y-71169800D01*
X129716800Y-73597208D02*
X129716800Y-134239000D01*
X132144207Y-71169800D02*
X129716800Y-73597208D01*
%TO.N,Zacc*%
X130175000Y-73787000D02*
X130175000Y-134620000D01*
X132334000Y-71628000D02*
X130175000Y-73787000D01*
X141272800Y-71628000D02*
X132334000Y-71628000D01*
X141477187Y-71832387D02*
X141272800Y-71628000D01*
X141780800Y-71832387D02*
X141477187Y-71832387D01*
%TO.N,Xacc_Buffered*%
X156972000Y-75946000D02*
X156972000Y-77470000D01*
D27*
%TO.N,AMP_IN*%
X113665000Y-68834000D02*
X113665000Y-89916000D01*
X110420000Y-67818000D02*
X112649000Y-67818000D01*
X113665000Y-89916000D02*
X115175000Y-91426000D01*
X112649000Y-67818000D02*
X113665000Y-68834000D01*
X115175000Y-91426000D02*
X119910000Y-91426000D01*
D26*
%TO.N,+5V*%
X121864400Y-67265800D02*
X123488200Y-67265800D01*
X153416000Y-74360000D02*
X144780000Y-74360000D01*
X134767008Y-62644000D02*
X137942008Y-62644000D01*
X124079000Y-63246000D02*
X124681000Y-62644000D01*
X132948993Y-62644000D02*
X133158792Y-62434200D01*
X119888000Y-63246000D02*
X119888000Y-66675000D01*
X134557207Y-62434200D02*
X134767008Y-62644000D01*
X137942008Y-62644000D02*
X142339600Y-67041592D01*
X119380000Y-62738000D02*
X119888000Y-63246000D01*
X120478800Y-67265800D02*
X121864400Y-67265800D01*
X110420000Y-62738000D02*
X119380000Y-62738000D01*
X142339600Y-74394600D02*
X143637000Y-75692000D01*
X123488200Y-67265800D02*
X124079000Y-66675000D01*
X143637000Y-75692000D02*
X143637000Y-76073000D01*
X119888000Y-66675000D02*
X120478800Y-67265800D01*
X124079000Y-66675000D02*
X124079000Y-63246000D01*
X142339600Y-67041592D02*
X142339600Y-74394600D01*
X133158792Y-62434200D02*
X134557207Y-62434200D01*
X124681000Y-62644000D02*
X132948993Y-62644000D01*
%TO.N,-5V*%
X109347000Y-65278000D02*
X108712000Y-64643000D01*
X132969000Y-61976000D02*
X134747000Y-61976000D01*
X160528000Y-79310000D02*
X151892000Y-79310000D01*
X110420000Y-65278000D02*
X109347000Y-65278000D01*
X108712000Y-61976000D02*
X109220000Y-61468000D01*
X121864400Y-62185800D02*
X132759200Y-62185800D01*
X108712000Y-64643000D02*
X108712000Y-61976000D01*
X134956800Y-62185800D02*
X138131800Y-62185800D01*
X143613807Y-74919800D02*
X147501800Y-74919800D01*
X112477800Y-62185800D02*
X121864400Y-62185800D01*
X132759200Y-62185800D02*
X132969000Y-61976000D01*
X147501800Y-74919800D02*
X151892000Y-79310000D01*
X142797800Y-74103792D02*
X143613807Y-74919800D01*
X142797800Y-66851800D02*
X142797800Y-74103792D01*
X134747000Y-61976000D02*
X134956800Y-62185800D01*
X138131800Y-62185800D02*
X142797800Y-66851800D01*
X109220000Y-61468000D02*
X111760000Y-61468000D01*
X111760000Y-61468000D02*
X112477800Y-62185800D01*
%TO.N,Radio_RX*%
X117325046Y-125257946D02*
X109905800Y-125257946D01*
X118949200Y-117410792D02*
X118949200Y-123633792D01*
X127381000Y-115925600D02*
X127280400Y-115825000D01*
X120534992Y-115825000D02*
X118949200Y-117410792D01*
X118949200Y-123633792D02*
X117325046Y-125257946D01*
X127280400Y-115825000D02*
X120534992Y-115825000D01*
%TO.N,Radio_TX*%
X127762000Y-115366800D02*
X120345200Y-115366800D01*
X117947054Y-123987946D02*
X112445800Y-123987946D01*
X118491000Y-123444000D02*
X117947054Y-123987946D01*
X118491000Y-117221000D02*
X118491000Y-123444000D01*
X120345200Y-115366800D02*
X118491000Y-117221000D01*
%TO.N,I2C_SDA*%
X149548060Y-103759000D02*
X150536655Y-102770405D01*
X145218483Y-106680000D02*
X145218483Y-105479517D01*
X145167683Y-106730800D02*
X145218483Y-106680000D01*
X145218483Y-105479517D02*
X146597213Y-104100787D01*
X146789877Y-104100787D02*
X147131664Y-103759000D01*
X146597213Y-104100787D02*
X146789877Y-104100787D01*
X147131664Y-103759000D02*
X149548060Y-103759000D01*
%TO.N,I2C_SCL*%
X151200920Y-102896403D02*
X151096455Y-103000868D01*
X150624847Y-103330205D02*
X149737852Y-104217200D01*
X145957946Y-105388046D02*
X145957946Y-106730799D01*
X149737852Y-104217200D02*
X147321456Y-104217200D01*
X147321456Y-104217200D02*
X146979670Y-104558987D01*
X146787005Y-104558987D02*
X145957946Y-105388046D01*
X146979670Y-104558987D02*
X146787005Y-104558987D01*
X151096455Y-103000868D02*
X151096455Y-103002282D01*
X150768532Y-103330205D02*
X150624847Y-103330205D01*
X151278400Y-102896403D02*
X151200920Y-102896403D01*
X151096455Y-103002282D02*
X150768532Y-103330205D01*
X141217870Y-109497400D02*
X141217870Y-108379800D01*
%TO.N,SWDIO*%
X178689000Y-98621600D02*
X178689000Y-97663000D01*
X178689000Y-97663000D02*
X180721000Y-95631000D01*
%TO.N,SPI_MOSI*%
X153670000Y-105486209D02*
X153670000Y-97009252D01*
X153111209Y-106045000D02*
X153670000Y-105486209D01*
X153670000Y-97009252D02*
X152690800Y-96030052D01*
%TO.N,SPI_SCK*%
X151370388Y-96014602D02*
X151370388Y-96149310D01*
X153303132Y-91236800D02*
X151841200Y-91236800D01*
X151790403Y-105814406D02*
X151790403Y-106045000D01*
X151841200Y-91236800D02*
X151765000Y-91313000D01*
X152753600Y-104851209D02*
X151790403Y-105814406D01*
X152753600Y-97532522D02*
X152753600Y-104851209D01*
X151370388Y-96149310D02*
X152753600Y-97532522D01*
%TO.N,SPI_MISO*%
X153211800Y-105152732D02*
X153211800Y-97342729D01*
X152030760Y-96161689D02*
X152030760Y-96008181D01*
X153211800Y-97342729D02*
X152030760Y-96161689D01*
X152450806Y-105913726D02*
X153211800Y-105152732D01*
X152450806Y-106045000D02*
X152450806Y-105913726D01*
%TO.N,XBee_TX*%
X160848000Y-120330000D02*
X162129200Y-119048800D01*
X162129200Y-103818575D02*
X162229800Y-103717975D01*
X155305000Y-120330000D02*
X160848000Y-120330000D01*
X162129200Y-119048800D02*
X162129200Y-103818575D01*
%TO.N,XBee_RX*%
X160054000Y-118330000D02*
X161671000Y-116713000D01*
X155305000Y-118330000D02*
X160054000Y-118330000D01*
X161671000Y-116713000D02*
X161671000Y-103251000D01*
%TO.N,SPI_ADC_DRDY*%
X150710002Y-96145893D02*
X150710002Y-96009925D01*
X151736609Y-97163523D02*
X151727632Y-97163523D01*
X151130000Y-105826816D02*
X152295400Y-104661416D01*
X151727632Y-97163523D02*
X150710002Y-96145893D01*
X152295400Y-97722314D02*
X151736609Y-97163523D01*
X151130000Y-106045000D02*
X151130000Y-105826816D01*
X152295400Y-104661416D02*
X152295400Y-97722314D01*
%TO.N,SPI_Acc_ADC_CS*%
X151837200Y-97921083D02*
X151837200Y-104471624D01*
X150719559Y-96803442D02*
X151837200Y-97921083D01*
X151837200Y-104471624D02*
X150995024Y-105313800D01*
X150049606Y-96012847D02*
X150049606Y-96141206D01*
X150049606Y-96141206D02*
X150711842Y-96803442D01*
X150995024Y-105313800D02*
X147827708Y-105313800D01*
X150711842Y-96803442D02*
X150719559Y-96803442D01*
%TO.N,Boot0*%
X161466384Y-94488000D02*
X159904716Y-94488000D01*
X159904716Y-94488000D02*
X159890584Y-94473868D01*
%TO.N,Boot1*%
X154128200Y-97077800D02*
X154685000Y-96521000D01*
X154685000Y-96521000D02*
X155397201Y-96521000D01*
X154128200Y-105995200D02*
X154128200Y-97077800D01*
X154178000Y-106045000D02*
X154128200Y-105995200D01*
%TO.N,ADC_RESET*%
X156005618Y-97712118D02*
X156005618Y-96061618D01*
X156005618Y-96061618D02*
X155067000Y-95123000D01*
X155067000Y-95123000D02*
X149733000Y-95123000D01*
%TO.N,Net-(U4-CLKIN)*%
X163576000Y-92964000D02*
X162814000Y-92202000D01*
X162814000Y-92202000D02*
X154305000Y-92202000D01*
%TD*%
M02*
