%TF.GenerationSoftware,KiCad,Pcbnew,9.0.1*%
%TF.CreationDate,2025-06-11T13:29:21-05:00*%
%TF.ProjectId,Digital_PCB,44696769-7461-46c5-9f50-43422e6b6963,2.0*%
%TF.SameCoordinates,Original*%
%TF.FileFunction,Soldermask,Bot*%
%TF.FilePolarity,Negative*%
%FSLAX46Y46*%
G04 Gerber Fmt 4.6, Leading zero omitted, Abs format (unit mm)*
G04 Created by KiCad (PCBNEW 9.0.1) date 2025-06-11 13:29:21*
%MOMM*%
%LPD*%
G01*
G04 APERTURE LIST*
G04 Aperture macros list*
%AMRoundRect*
0 Rectangle with rounded corners*
0 $1 Rounding radius*
0 $2 $3 $4 $5 $6 $7 $8 $9 X,Y pos of 4 corners*
0 Add a 4 corners polygon primitive as box body*
4,1,4,$2,$3,$4,$5,$6,$7,$8,$9,$2,$3,0*
0 Add four circle primitives for the rounded corners*
1,1,$1+$1,$2,$3*
1,1,$1+$1,$4,$5*
1,1,$1+$1,$6,$7*
1,1,$1+$1,$8,$9*
0 Add four rect primitives between the rounded corners*
20,1,$1+$1,$2,$3,$4,$5,0*
20,1,$1+$1,$4,$5,$6,$7,0*
20,1,$1+$1,$6,$7,$8,$9,0*
20,1,$1+$1,$8,$9,$2,$3,0*%
G04 Aperture macros list end*
%ADD10C,3.937000*%
%ADD11C,1.500000*%
%ADD12R,1.700000X1.700000*%
%ADD13O,1.700000X1.700000*%
%ADD14C,1.700000*%
%ADD15C,1.050000*%
%ADD16C,1.300000*%
%ADD17C,2.600000*%
%ADD18RoundRect,0.249900X-0.800100X0.800100X-0.800100X-0.800100X0.800100X-0.800100X0.800100X0.800100X0*%
%ADD19C,2.100000*%
%ADD20C,3.000000*%
%ADD21C,2.032000*%
%ADD22C,1.524000*%
%ADD23R,1.468000X1.468000*%
%ADD24C,1.468000*%
%ADD25C,1.509000*%
%ADD26R,1.350000X1.350000*%
%ADD27O,1.350000X1.350000*%
G04 APERTURE END LIST*
D10*
%TO.C,H1*%
X145380000Y-134108000D03*
%TD*%
D11*
%TO.C,F1*%
X124318000Y-94655000D03*
X124318000Y-99655000D03*
%TD*%
D12*
%TO.C,J8*%
X180721000Y-100711000D03*
D13*
X180721000Y-98171000D03*
X180721000Y-95631000D03*
X180721000Y-93091000D03*
%TD*%
D12*
%TO.C,J2*%
X110420000Y-60198000D03*
D14*
X110420000Y-62738000D03*
X110420000Y-65278000D03*
X110420000Y-67818000D03*
X110420000Y-70358000D03*
X110420000Y-72898000D03*
X110420000Y-75438000D03*
X110420000Y-77978000D03*
X110420000Y-80518000D03*
X110420000Y-83058000D03*
%TD*%
D15*
%TO.C,BT1*%
X124587000Y-127677000D03*
D16*
X124587000Y-120227000D03*
%TD*%
D17*
%TO.C,J9*%
X110210000Y-95264000D03*
X110210000Y-99300000D03*
D18*
X119910000Y-99300000D03*
D19*
X119910000Y-95264000D03*
%TD*%
D17*
%TO.C,J10*%
X110210000Y-103138000D03*
X110210000Y-107174000D03*
D18*
X119910000Y-107174000D03*
D19*
X119910000Y-103138000D03*
%TD*%
D20*
%TO.C,AE1*%
X136118600Y-136271000D03*
X133578600Y-133731000D03*
X138658600Y-133731000D03*
X138658600Y-138811000D03*
X133578600Y-138811000D03*
%TD*%
D10*
%TO.C,H2*%
X145380000Y-65958000D03*
%TD*%
D21*
%TO.C,J5*%
X113919000Y-110500546D03*
X113919000Y-117910546D03*
D22*
X112445800Y-116113946D03*
X109905800Y-114843946D03*
X112445800Y-113573946D03*
X109905800Y-112303946D03*
%TD*%
D12*
%TO.C,J7*%
X180721000Y-89286000D03*
D13*
X180721000Y-86746000D03*
%TD*%
D23*
%TO.C,PS1*%
X133857000Y-68707000D03*
D24*
X133857000Y-66167000D03*
X133857000Y-63627000D03*
%TD*%
D25*
%TO.C,U2*%
X121864400Y-79965800D03*
X121864400Y-77425800D03*
X121864400Y-74885800D03*
X121864400Y-69805800D03*
X121864400Y-67265800D03*
X121864400Y-64725800D03*
X121864400Y-62185800D03*
%TD*%
D17*
%TO.C,J1*%
X110210000Y-87390000D03*
X110210000Y-91426000D03*
D18*
X119910000Y-91426000D03*
D19*
X119910000Y-87390000D03*
%TD*%
D26*
%TO.C,U10*%
X155305000Y-116330000D03*
D27*
X155305000Y-118330000D03*
X155305000Y-120330000D03*
X155305000Y-122330000D03*
X155305000Y-124330000D03*
X155305000Y-126330000D03*
X155305000Y-128330000D03*
X155305000Y-130330000D03*
X155305000Y-132330000D03*
X155305000Y-134330000D03*
X177305000Y-134330000D03*
X177305000Y-132330000D03*
X177305000Y-130330000D03*
X177305000Y-128330000D03*
X177305000Y-126330000D03*
X177305000Y-124330000D03*
X177305000Y-122330000D03*
X177305000Y-120330000D03*
X177305000Y-118330000D03*
X177305000Y-116330000D03*
%TD*%
D12*
%TO.C,J6*%
X180721000Y-112141000D03*
D13*
X180721000Y-109601000D03*
X180721000Y-107061000D03*
X180721000Y-104521000D03*
%TD*%
D21*
%TO.C,J3*%
X113919000Y-120914546D03*
X113919000Y-128324546D03*
D22*
X112445800Y-126527946D03*
X109905800Y-125257946D03*
X112445800Y-123987946D03*
X109905800Y-122717946D03*
%TD*%
M02*
