M48
; DRILL file {KiCad 9.0.1} date 2025-06-11T13:29:23-0500
; FORMAT={-:-/ absolute / inch / decimal}
; #@! TF.CreationDate,2025-06-11T13:29:23-05:00
; #@! TF.GenerationSoftware,Kicad,Pcbnew,9.0.1
; #@! TF.FileFunction,Plated,1,4,PTH
FMAT,2
INCH
; #@! TA.AperFunction,Plated,PTH,ViaDrill
T1C0.0100
; #@! TA.AperFunction,Plated,PTH,ComponentDrill
T2C0.0299
; #@! TA.AperFunction,Plated,PTH,ComponentDrill
T3C0.0315
; #@! TA.AperFunction,Plated,PTH,ComponentDrill
T4C0.0319
; #@! TA.AperFunction,Plated,PTH,ComponentDrill
T5C0.0378
; #@! TA.AperFunction,Plated,PTH,ComponentDrill
T6C0.0380
; #@! TA.AperFunction,Plated,PTH,ComponentDrill
T7C0.0394
; #@! TA.AperFunction,Plated,PTH,ComponentDrill
T8C0.0433
; #@! TA.AperFunction,Plated,PTH,ComponentDrill
T9C0.0590
; #@! TA.AperFunction,Plated,PTH,ComponentDrill
T10C0.0610
%
G90
G05
T1
X4.515Y-5.23
X4.515Y-5.27
X4.5755Y-4.367
X4.5755Y-4.393
X4.7Y-5.385
X4.7Y-5.54
X4.835Y-5.2117
X4.85Y-5.58
X4.9Y-3.585
X4.925Y-4.33
X4.97Y-4.366
X4.97Y-4.392
X4.97Y-4.418
X4.9783Y-5.2117
X4.98Y-5.5
X4.99Y-4.28
X5.01Y-3.64
X5.015Y-4.564
X5.03Y-4.542
X5.073Y-5.3
X5.099Y-5.3
X5.115Y-5.42
X5.125Y-5.3
X5.147Y-3.315
X5.22Y-3.54
X5.305Y-4.12
X5.315Y-2.895
X5.32Y-4.89
X5.36Y-4.345
X5.4013Y-3.505
X5.405Y-4.89
X5.4063Y-3.3828
X5.4096Y-3.4549
X5.5054Y-4.2153
X5.5088Y-4.2431
X5.52Y-4.2669
X5.5598Y-4.2669
X5.5598Y-4.3109
X5.5613Y-3.38
X5.5819Y-2.776
X5.5819Y-2.802
X5.5819Y-2.828
X5.59Y-5.0
X5.59Y-5.06
X5.595Y-3.505
X5.5963Y-3.365
X5.635Y-4.015
X5.655Y-2.995
X5.655Y-3.36
X5.695Y-4.385
X5.7Y-2.9276
X5.7Y-3.105
X5.7088Y-4.0985
X5.715Y-3.36
X5.7153Y-4.202
X5.7464Y-4.202
X5.77Y-4.0764
X5.7728Y-3.8915
X5.82Y-4.1462
X5.82Y-4.22
X5.86Y-3.27
X5.865Y-3.185
X5.895Y-3.745
X5.9075Y-3.78
X5.9128Y-3.8665
X5.9266Y-4.0461
X5.9332Y-3.4204
X5.9335Y-3.7799
X5.935Y-3.97
X5.935Y-3.996
X5.935Y-4.1
X5.946Y-4.748
X5.95Y-3.86
X5.95Y-4.175
X5.9558Y-4.051
X5.9595Y-3.7801
X5.975Y-3.595
X5.976Y-4.175
X5.98Y-2.95
X5.98Y-3.1224
X5.98Y-3.27
X5.9855Y-3.7798
X6.002Y-4.175
X6.005Y-5.225
X6.0114Y-3.7807
X6.028Y-4.175
X6.0356Y-3.592
X6.04Y-2.9276
X6.04Y-3.1
X6.0506Y-3.4255
X6.07Y-4.175
X6.075Y-3.63
X6.09Y-3.99
X6.1Y-3.27
X6.1128Y-4.4105
X6.118Y-3.8
X6.142Y-3.8469
X6.18Y-2.99
X6.18Y-3.05
X6.2Y-4.215
X6.22Y-3.27
X6.2328Y-3.9365
X6.24Y-3.47
X6.24Y-3.53
X6.245Y-3.665
X6.245Y-3.7
X6.265Y-3.9841
X6.265Y-4.215
X6.2949Y-3.7194
X6.3078Y-3.8915
X6.31Y-3.83
X6.32Y-2.955
X6.32Y-3.1224
X6.3336Y-3.7986
X6.3569Y-3.72
X6.365Y-4.065
X6.385Y-2.94
X6.387Y-4.0834
X6.44Y-3.66
X6.46Y-3.83
X6.475Y-3.13
X6.535Y-2.755
X6.535Y-3.27
X6.57Y-2.95
X6.57Y-3.61
X6.58Y-3.305
X6.58Y-3.38
X6.58Y-3.44
X6.605Y-3.83
X6.665Y-2.74
X6.745Y-3.675
X6.85Y-3.38
X6.85Y-3.44
X6.95Y-3.55
X7.035Y-3.8827
X7.1Y-5.245
X7.145Y-2.84
X7.15Y-3.285
T2
X4.8944Y-3.7266
X4.8944Y-3.9234
T3
X6.1144Y-4.5799
X6.1144Y-4.6587
X6.1144Y-4.7374
X6.1144Y-4.8161
X6.1144Y-4.8949
X6.1144Y-4.9736
X6.1144Y-5.0524
X6.1144Y-5.1311
X6.1144Y-5.2098
X6.1144Y-5.2886
X6.9805Y-4.5799
X6.9805Y-4.6587
X6.9805Y-4.7374
X6.9805Y-4.8161
X6.9805Y-4.8949
X6.9805Y-4.9736
X6.9805Y-5.0524
X6.9805Y-5.1311
X6.9805Y-5.2098
X6.9805Y-5.2886
T4
X4.7978Y-2.4483
X4.7978Y-2.5483
X4.7978Y-2.6483
X4.7978Y-2.7483
X4.7978Y-2.9483
X4.7978Y-3.0483
X4.7978Y-3.1483
T5
X5.27Y-2.505
X5.27Y-2.605
X5.27Y-2.705
T6
X4.327Y-4.4214
X4.327Y-4.5214
X4.327Y-4.8314
X4.327Y-4.9314
X4.427Y-4.4714
X4.427Y-4.5714
X4.427Y-4.8814
X4.427Y-4.9814
T7
X4.3472Y-2.37
X4.3472Y-2.47
X4.3472Y-2.57
X4.3472Y-2.67
X4.3472Y-2.77
X4.3472Y-2.87
X4.3472Y-2.97
X4.3472Y-3.07
X4.3472Y-3.17
X4.3472Y-3.27
X7.115Y-3.4152
X7.115Y-3.5152
X7.115Y-3.665
X7.115Y-3.765
X7.115Y-3.865
X7.115Y-3.965
X7.115Y-4.115
X7.115Y-4.215
X7.115Y-4.315
X7.115Y-4.415
T8
X4.7209Y-3.4406
X4.7209Y-3.5994
X4.7209Y-3.7506
X4.7209Y-3.9094
X4.7209Y-4.0606
X4.7209Y-4.2194
T9
X4.485Y-4.3504
X4.485Y-4.6421
X4.485Y-4.7604
X4.485Y-5.0521
T10
X5.259Y-5.265
X5.259Y-5.465
X5.359Y-5.365
X5.459Y-5.265
X5.459Y-5.465
M30
